<?xml version="1.0" encoding="UTF-8" standalone="no"?>
<!-- Created with Inkscape (http://www.inkscape.org/) -->

<svg
   version="1.1"
   id="svg1"
   width="237.89023"
   height="328.86536"
   viewBox="0 0 237.89023 328.86535"
   xmlns="http://www.w3.org/2000/svg"
   xmlns:svg="http://www.w3.org/2000/svg">
  <defs
     id="defs1" />
  <g
     id="g1"
     transform="translate(-73.333337,-20.000302)">
    <path
       style="fill:#000000"
       d="m 175.33334,348.03401 c -1.46667,-0.64895 -4.61667,-1.22208 -7,-1.27362 -2.38334,-0.0515 -4.33506,-0.54371 -4.33717,-1.09371 -0.002,-0.55 -1.82056,-2.2 -4.041,-3.66667 -5.29345,-3.49648 -8.69431,-9.39011 -9.84454,-17.06041 -0.51225,-3.41592 -1.40282,-6.50214 -1.97904,-6.85827 -0.57623,-0.35612 -0.83559,-4.42011 -0.57637,-9.03108 0.25923,-4.61097 0.72084,-15.28358 1.02581,-23.71691 0.30497,-8.43333 1.51378,-18.93333 2.68626,-23.33333 2.10866,-7.91324 2.51328,-21.10045 0.61136,-19.925 -0.54132,0.33455 -1.26046,-0.14546 -1.5981,-1.0667 -0.49117,-1.34016 -0.96702,-1.34182 -2.38055,-0.008 -6.58511,6.21236 -8.17126,-0.20813 -2.03681,-8.24469 2.49142,-3.26394 4.76266,-6.63284 5.04719,-7.48645 0.67871,-2.03612 8.65682,-2.92765 11.68693,-1.30598 7.20334,3.85511 8.1295,14.31112 6.03145,68.09322 -0.7471,19.15143 -0.59099,21.27432 2.05871,27.99667 4.09186,10.38113 3.50892,10.08569 17.53389,8.88644 6.84492,-0.5853 15.7908,-1.00769 19.87973,-0.93866 4.08893,0.069 10.38401,-0.8759 13.98908,-2.09985 3.60506,-1.22396 12.44905,-3.65262 19.65331,-5.39704 20.39637,-4.93873 25.32332,-7.54849 34.23262,-18.13274 9.16529,-10.88837 9.2096,-11.05523 12.84431,-48.37092 1.69018,-17.35215 0.89883,-58.23227 -1.27952,-66.0982 -1.102,-3.97933 -2.41136,-10.83451 -2.90968,-15.23375 -0.49832,-4.39924 -1.63428,-9.49924 -2.52436,-11.33333 -0.89008,-1.8341 -1.78646,-5.73473 -1.99196,-8.66806 -0.2055,-2.93333 -0.75022,-5.93333 -1.2105,-6.66667 -0.46027,-0.73333 -1.03647,-2.78709 -1.28045,-4.56391 -0.24397,-1.77683 -1.00916,-4.28738 -1.70043,-5.57902 -0.69126,-1.29163 -1.25684,-3.86585 -1.25684,-5.72049 0,-3.76841 -5.43952,-26.42892 -6.59399,-27.46991 -0.40664,-0.36667 -0.81319,-2.979329 -0.90345,-5.805915 -0.0938,-2.936583 -2.19948,-9.222671 -4.91301,-14.666668 -2.6119,-5.24008 -6.72617,-13.672683 -9.14283,-18.739118 -2.41666,-5.066435 -5.03692,-9.866436 -5.82279,-10.666667 -0.78588,-0.800232 -2.84071,-4.454967 -4.56629,-8.121634 -1.72558,-3.666667 -5.20483,-10.076294 -7.73166,-14.243616 -4.27774,-7.054944 -4.75258,-10.423051 -1.46946,-10.423051 2.56296,0 11.45259,10.33923 21.78149,25.333334 7.65259,11.108987 26.11629,51.492899 26.92651,58.893795 0.24069,2.19859 2.23714,8.09748 4.43655,13.10864 2.19942,5.01116 4.00118,10.51063 4.00392,12.22105 0.003,1.71042 1.20274,5.07435 2.66667,7.47541 1.46678,2.40574 2.66168,6.71563 2.66168,9.60041 0,3.40788 0.74304,5.65068 2.12904,6.42633 1.2345,0.69086 2.31105,3.37972 2.56223,6.39958 1.48287,17.82818 2.46111,25.48319 3.51707,27.52239 1.07585,2.07759 2.75629,9.02283 4.44047,18.3524 2.12269,11.75867 3.08733,35.19543 2.30492,56 -0.12411,3.3 -0.23196,11.81591 -0.23966,18.92424 -0.0117,10.80785 -0.55058,14.13749 -3.29067,20.33333 -1.80216,4.075 -2.93153,7.4091 -2.50971,7.4091 0.42183,0 -1.84358,2.25 -5.03423,5 -3.19065,2.75 -7.08759,6.35 -8.65988,8 -1.57229,1.65 -3.72243,3 -4.7781,3 -1.05567,0 -4.7269,1.78046 -8.15828,3.95658 -11.19591,7.10024 -18.9527,10.1903 -33.61654,13.3918 -3.66666,0.80053 -9.61243,2.10462 -13.2128,2.89799 -16.3402,3.60065 -51.22239,5.95489 -56.12053,3.78763 z M 82.179814,337.23657 c -5.795863,-4.55903 -4.420542,-11.49405 3.814901,-19.23656 2.841423,-2.67135 5.264306,-7.10019 7.294259,-13.33334 1.671777,-5.13333 3.670708,-10.83333 4.442069,-12.66666 0.771361,-1.83334 1.568478,-4.53334 1.771371,-6 0.202893,-1.46667 1.057416,-5.66667 1.898936,-9.33334 5.40089,-23.53274 0.53973,-46.91179 -9.67179,-46.51504 -7.89084,0.30658 -18.396225,-8.49466 -18.396225,-15.41207 0,-2.67082 8.382849,-10.74368 14.143918,-13.6209 3.269457,-1.63284 8.774581,-6.19523 12.233609,-10.13864 3.459028,-3.94341 9.023968,-9.97713 12.366528,-13.40826 3.34256,-3.43113 8.08374,-9.83842 10.53596,-14.23842 2.45221,-4.4 5.51374,-9.2 6.80339,-10.66667 C 130.70639,151.2 132.47482,147.3 133.34657,144 c 0.87176,-3.3 2.57541,-7.70035 3.78589,-9.77855 3.36688,-5.78041 -7.18104,-13.84723 -19.00486,-14.53451 -3.50602,-0.2038 -6.37105,-1.0955 -6.76265,-2.10478 -0.37369,-0.96315 -1.37639,-1.32044 -2.22821,-0.79399 -0.92143,0.56948 -1.19032,0.37722 -0.66383,-0.47466 0.48672,-0.78752 -0.0206,-2.33737 -1.12732,-3.44411 -6.07845,-6.07845 3.94927,-17.231234 14.7543,-16.409645 6.93849,0.527587 22.00089,6.448545 24.71069,9.713645 0.83377,1.00463 2.40265,1.8266 3.48639,1.8266 13.19944,0 15.88751,22.22823 4.75217,39.29668 -0.94369,1.4465 -1.7158,3.65607 -1.7158,4.91015 0,1.25408 -1.05,2.62479 -2.33334,3.04602 -1.28333,0.42124 -3.83333,3.82751 -5.66666,7.56949 -1.83334,3.74197 -6.78265,10.78776 -10.99848,15.6573 -4.21583,4.86953 -8.60816,10.83359 -9.76075,13.25347 -1.18425,2.48636 -4.02777,5.32116 -6.53851,6.51844 -9.34902,4.45824 -8.26783,12.05562 1.22704,8.62223 2.34302,-0.84724 6.52279,-1.54044 9.28839,-1.54044 3.00943,0 6.38952,-1.07069 8.41848,-2.66667 1.86456,-1.46666 5.07014,-2.66666 7.12351,-2.66666 9.2464,0 14.20481,-5.96284 7.80606,-9.38735 C 146.56767,187.75937 144,184.08656 144,179.31374 c 0,-12.1571 21.15933,-13.39024 37.93274,-2.21066 2.97033,1.97974 8.1006,4.7635 11.4006,6.18614 3.3,1.42263 7.8,4.2458 10,6.2737 2.2,2.0279 5.68091,5.20584 7.73536,7.06209 2.05445,1.85625 3.38529,3.375 2.95742,3.375 -0.42787,0 0.0491,1.57846 1.05992,3.50769 4.53976,8.66445 -3.35322,23.83232 -13.93509,26.77894 -15.70776,4.37398 -28.05199,-2.18002 -16.81761,-8.92908 11.72003,-7.04082 11.99387,-7.85211 4.84737,-14.36102 -13.42431,-12.22665 -21.94204,-12.86358 -25.45277,-1.90329 -3.19816,9.98445 -14.16967,17.29657 -30.3946,20.25693 -10.26829,1.87352 -10.66667,2.2268 -10.66667,9.45914 0,3.58821 0.5,6.52402 1.11111,6.52402 0.61111,0 1.20674,0.75 1.32363,1.66667 1.05074,8.24063 0.88923,12.63283 -0.52709,14.33333 -1.51881,1.82356 -2.29074,7.15782 -3.74846,25.90273 -0.28098,3.61316 -1.34928,7.21316 -2.37399,8 -1.02472,0.78683 -3.00068,7.4306 -4.39102,14.76394 -1.39035,7.33333 -3.66367,14.98333 -5.05183,17 -1.38817,2.01667 -2.06196,3.66667 -1.49732,3.66667 1.68871,0 -7.892159,9.24689 -11.778817,11.36821 -4.980889,2.71856 -9.414055,2.45743 -13.553069,-0.79832 z"
       id="path1" />
  </g>
</svg>
